<svg width="64px" height="64px" viewBox="0 0 64 64" fill="none" xmlns="http://www.w3.org/2000/svg">
  <rect width="64" height="64" rx="10" fill="#F0F4F8" />
  <path d="M10 38V32H54V38H58V32C58 29.2386 55.7614 27 53 27H11C8.23858 27 6 29.2386 6 32V38H10Z"
    fill="#4299E1" />
  <path d="M11 22H53L58 32H6L11 22Z" fill="#A0AEC0" />
  <circle cx="20" cy="44" r="5" fill="#E53E3E" />
  <circle cx="44" cy="44" r="5" fill="#E53E3E" />
  <rect x="26" y="22" width="12" height="10" fill="#EDF2F7" />
  <path d="M32 16C29.2386 16 27 18.2386 27 21H37C37 18.2386 34.7614 16 32 16Z" fill="#2D3748" />
  <line x1="17" y1="32" x2="47" y2="32" stroke="#2D3748" stroke-width="2" />
  <line x1="14" y1="36" x2="50" y2="36" stroke="#2D3748" stroke-width="2" />
</svg>